<svg xmlns="http://www.w3.org/2000/svg" xmlns:xlink="http://www.w3.org/1999/xlink" width="40" zoomAndPan="magnify" viewBox="0 0 30 30.000001" height="40" preserveAspectRatio="xMidYMid meet" version="1.0"><defs><clipPath id="863ecd33c3"><path d="M 0.808594 0.328125 L 29.117188 0.328125 L 29.117188 28.632812 L 0.808594 28.632812 Z M 0.808594 0.328125 " clip-rule="nonzero"/></clipPath></defs><g clip-path="url(#863ecd33c3)"><path fill="#000000" d="M 28.765625 21.105469 C 28.972656 21.660156 29.09375 22.25 29.113281 22.871094 C 29.117188 22.929688 29.117188 22.992188 29.117188 23.050781 C 29.117188 26.132812 26.617188 28.632812 23.535156 28.632812 C 10.984375 28.632812 0.808594 18.457031 0.808594 5.90625 C 0.808594 2.828125 3.308594 0.328125 6.390625 0.328125 C 6.453125 0.328125 6.511719 0.328125 6.570312 0.332031 C 7.191406 0.347656 7.785156 0.46875 8.339844 0.675781 L 10.433594 9.75 C 10.433594 9.753906 10.433594 9.753906 10.425781 9.757812 L 6.585938 11.484375 L 6.574219 11.488281 C 8.335938 16.859375 12.585938 21.105469 17.953125 22.871094 L 17.957031 22.859375 L 19.6875 19.011719 L 28.765625 21.105469 " fill-opacity="1" fill-rule="nonzero"/></g></svg>