<svg xmlns="http://www.w3.org/2000/svg" xmlns:xlink="http://www.w3.org/1999/xlink" width="40" zoomAndPan="magnify" viewBox="0 0 30 30.000001" height="40" preserveAspectRatio="xMidYMid meet" version="1.0"><defs><clipPath id="9eb54df388"><path d="M 5.34375 0.722656 L 24.941406 0.722656 L 24.941406 28.300781 L 5.34375 28.300781 Z M 5.34375 0.722656 " clip-rule="nonzero"/></clipPath></defs><g clip-path="url(#9eb54df388)"><path fill="#000000" d="M 15.140625 0.722656 C 9.734375 0.722656 5.347656 5.042969 5.347656 10.375 C 5.347656 17.613281 15.140625 28.300781 15.140625 28.300781 C 15.140625 28.300781 24.9375 17.613281 24.9375 10.375 C 24.9375 5.042969 20.550781 0.722656 15.140625 0.722656 Z M 15.140625 13.820312 C 13.210938 13.820312 11.644531 12.277344 11.644531 10.375 C 11.644531 8.472656 13.210938 6.925781 15.140625 6.925781 C 17.074219 6.925781 18.640625 8.472656 18.640625 10.375 C 18.640625 12.277344 17.074219 13.820312 15.140625 13.820312 Z M 15.140625 13.820312 " fill-opacity="1" fill-rule="nonzero"/></g></svg>