<svg xmlns="http://www.w3.org/2000/svg" xmlns:xlink="http://www.w3.org/1999/xlink" width="40" zoomAndPan="magnify" viewBox="0 0 30 30.000001" height="40" preserveAspectRatio="xMidYMid meet" version="1.0"><defs><clipPath id="941db9663f"><path d="M 2.363281 0.472656 L 27.765625 0.472656 L 27.765625 28.78125 L 2.363281 28.78125 Z M 2.363281 0.472656 " clip-rule="nonzero"/></clipPath></defs><g clip-path="url(#941db9663f)"><path fill="#000000" d="M 21.457031 14.710938 L 19.960938 13.210938 L 13.074219 20.117188 L 10.082031 17.117188 L 8.585938 18.617188 L 13.074219 23.117188 Z M 24.941406 3.304688 L 23.53125 3.304688 L 23.53125 0.476562 L 20.707031 0.476562 L 20.707031 3.304688 L 9.417969 3.304688 L 9.417969 0.476562 L 6.59375 0.476562 L 6.59375 3.304688 L 5.183594 3.304688 C 3.625 3.304688 2.375 4.574219 2.375 6.136719 L 2.363281 25.945312 C 2.363281 27.511719 3.625 28.777344 5.183594 28.777344 L 24.941406 28.777344 C 26.5 28.777344 27.765625 27.511719 27.765625 25.945312 L 27.765625 6.136719 C 27.765625 4.574219 26.5 3.304688 24.941406 3.304688 Z M 24.941406 25.945312 L 5.183594 25.945312 L 5.183594 10.382812 L 24.941406 10.382812 Z M 24.941406 25.945312 " fill-opacity="1" fill-rule="nonzero"/></g></svg>